<svg version="1.1" xmlns="http://www.w3.org/2000/svg" viewBox="0 0 665.8333333333333 727.3333333333335" width="1331.6666666666665" height="1454.666666666667">
  <!-- svg-source:excalidraw -->
  
  <defs>
    <style class="style-fonts">
      @font-face {
        font-family: "Virgil";
        src: url("https://unpkg.com/revedraw@1.0.0-alpha.10/dist/excalidraw-assets/Virgil.woff2");
      }
      @font-face {
        font-family: "Cascadia";
        src: url("https://unpkg.com/revedraw@1.0.0-alpha.10/dist/excalidraw-assets/Cascadia.woff2");
      }
    </style>
    
  </defs>
  <rect x="0" y="0" width="665.8333333333333" height="727.3333333333335" fill="#ffffff"></rect><g transform="translate(189.1666666666668 10) rotate(0 102.84997558593747 12.5)"><text x="0" y="0" font-family="HanziPen SC, HanziPen Remote, Virgil, KaiTi, Segoe UI Emoji" font-size="20px" fill="#1e1e1e" text-anchor="start" style="white-space: pre;" direction="ltr" dominant-baseline="text-before-edge">237. 删除链表中的节点</text></g><g transform="translate(260.83333333333326 55) rotate(0 35.02995300292969 12.5)"><text x="0" y="0" font-family="HanziPen SC, HanziPen Remote, Virgil, KaiTi, Segoe UI Emoji" font-size="20px" fill="#1e1e1e" text-anchor="start" style="white-space: pre;" direction="ltr" dominant-baseline="text-before-edge">node = 5</text></g><g stroke-linecap="round" transform="translate(328.97619047619037 468.91666666666606) rotate(0 37.5 37.5)"><path d="M75 37.5 C75 39.46, 74.84 41.43, 74.54 43.37 C74.23 45.3, 73.77 47.23, 73.16 49.09 C72.56 50.95, 71.8 52.78, 70.91 54.52 C70.02 56.27, 68.99 57.96, 67.84 59.54 C66.69 61.12, 65.4 62.63, 64.02 64.02 C62.63 65.4, 61.12 66.69, 59.54 67.84 C57.96 68.99, 56.27 70.02, 54.52 70.91 C52.78 71.8, 50.95 72.56, 49.09 73.16 C47.23 73.77, 45.3 74.23, 43.37 74.54 C41.43 74.84, 39.46 75, 37.5 75 C35.54 75, 33.57 74.84, 31.63 74.54 C29.7 74.23, 27.77 73.77, 25.91 73.16 C24.05 72.56, 22.22 71.8, 20.48 70.91 C18.73 70.02, 17.04 68.99, 15.46 67.84 C13.88 66.69, 12.37 65.4, 10.98 64.02 C9.6 62.63, 8.31 61.12, 7.16 59.54 C6.01 57.96, 4.98 56.27, 4.09 54.52 C3.2 52.78, 2.44 50.95, 1.84 49.09 C1.23 47.23, 0.77 45.3, 0.46 43.37 C0.16 41.43, 0 39.46, 0 37.5 C0 35.54, 0.16 33.57, 0.46 31.63 C0.77 29.7, 1.23 27.77, 1.84 25.91 C2.44 24.05, 3.2 22.22, 4.09 20.48 C4.98 18.73, 6.01 17.04, 7.16 15.46 C8.31 13.88, 9.6 12.37, 10.98 10.98 C12.37 9.6, 13.88 8.31, 15.46 7.16 C17.04 6.01, 18.73 4.98, 20.48 4.09 C22.22 3.2, 24.05 2.44, 25.91 1.84 C27.77 1.23, 29.7 0.77, 31.63 0.46 C33.57 0.16, 35.54 0, 37.5 0 C39.46 0, 41.43 0.16, 43.37 0.46 C45.3 0.77, 47.23 1.23, 49.09 1.84 C50.95 2.44, 52.78 3.2, 54.52 4.09 C56.27 4.98, 57.96 6.01, 59.54 7.16 C61.12 8.31, 62.63 9.6, 64.02 10.98 C65.4 12.37, 66.69 13.88, 67.84 15.46 C68.99 17.04, 70.02 18.73, 70.91 20.48 C71.8 22.22, 72.56 24.05, 73.16 25.91 C73.77 27.77, 74.23 29.7, 74.54 31.63 C74.84 33.57, 74.92 36.52, 75 37.5 C75.08 38.48, 75.08 36.52, 75 37.5" stroke="none" stroke-width="0" fill="#b2f2bb"></path><path d="M75 37.5 C75 39.46, 74.84 41.43, 74.54 43.37 C74.23 45.3, 73.77 47.23, 73.16 49.09 C72.56 50.95, 71.8 52.78, 70.91 54.52 C70.02 56.27, 68.99 57.96, 67.84 59.54 C66.69 61.12, 65.4 62.63, 64.02 64.02 C62.63 65.4, 61.12 66.69, 59.54 67.84 C57.96 68.99, 56.27 70.02, 54.52 70.91 C52.78 71.8, 50.95 72.56, 49.09 73.16 C47.23 73.77, 45.3 74.23, 43.37 74.54 C41.43 74.84, 39.46 75, 37.5 75 C35.54 75, 33.57 74.84, 31.63 74.54 C29.7 74.23, 27.77 73.77, 25.91 73.16 C24.05 72.56, 22.22 71.8, 20.48 70.91 C18.73 70.02, 17.04 68.99, 15.46 67.84 C13.88 66.69, 12.37 65.4, 10.98 64.02 C9.6 62.63, 8.31 61.12, 7.16 59.54 C6.01 57.96, 4.98 56.27, 4.09 54.52 C3.2 52.78, 2.44 50.95, 1.84 49.09 C1.23 47.23, 0.77 45.3, 0.46 43.37 C0.16 41.43, 0 39.46, 0 37.5 C0 35.54, 0.16 33.57, 0.46 31.63 C0.77 29.7, 1.23 27.77, 1.84 25.91 C2.44 24.05, 3.2 22.22, 4.09 20.48 C4.98 18.73, 6.01 17.04, 7.16 15.46 C8.31 13.88, 9.6 12.37, 10.98 10.98 C12.37 9.6, 13.88 8.31, 15.46 7.16 C17.04 6.01, 18.73 4.98, 20.48 4.09 C22.22 3.2, 24.05 2.44, 25.91 1.84 C27.77 1.23, 29.7 0.77, 31.63 0.46 C33.57 0.16, 35.54 0, 37.5 0 C39.46 0, 41.43 0.16, 43.37 0.46 C45.3 0.77, 47.23 1.23, 49.09 1.84 C50.95 2.44, 52.78 3.2, 54.52 4.09 C56.27 4.98, 57.96 6.01, 59.54 7.16 C61.12 8.31, 62.63 9.6, 64.02 10.98 C65.4 12.37, 66.69 13.88, 67.84 15.46 C68.99 17.04, 70.02 18.73, 70.91 20.48 C71.8 22.22, 72.56 24.05, 73.16 25.91 C73.77 27.77, 74.23 29.7, 74.54 31.63 C74.84 33.57, 74.92 36.52, 75 37.5 C75.08 38.48, 75.08 36.52, 75 37.5" stroke="#1e1e1e" stroke-width="1" fill="none"></path></g><g transform="translate(360.8396910645072 493.9001623721706) rotate(0 5.6199951171875 12.5)"><text x="5.6199951171875" y="0" font-family="HanziPen SC, HanziPen Remote, Virgil, KaiTi, Segoe UI Emoji" font-size="20px" fill="#1e1e1e" text-anchor="middle" style="white-space: pre;" direction="ltr" dominant-baseline="text-before-edge">1</text></g><g stroke-linecap="round" transform="translate(178.1547619047617 471.25) rotate(0 37.5 37.5)"><path d="M75 37.5 C75 39.46, 74.84 41.43, 74.54 43.37 C74.23 45.3, 73.77 47.23, 73.16 49.09 C72.56 50.95, 71.8 52.78, 70.91 54.52 C70.02 56.27, 68.99 57.96, 67.84 59.54 C66.69 61.12, 65.4 62.63, 64.02 64.02 C62.63 65.4, 61.12 66.69, 59.54 67.84 C57.96 68.99, 56.27 70.02, 54.52 70.91 C52.78 71.8, 50.95 72.56, 49.09 73.16 C47.23 73.77, 45.3 74.23, 43.37 74.54 C41.43 74.84, 39.46 75, 37.5 75 C35.54 75, 33.57 74.84, 31.63 74.54 C29.7 74.23, 27.77 73.77, 25.91 73.16 C24.05 72.56, 22.22 71.8, 20.48 70.91 C18.73 70.02, 17.04 68.99, 15.46 67.84 C13.88 66.69, 12.37 65.4, 10.98 64.02 C9.6 62.63, 8.31 61.12, 7.16 59.54 C6.01 57.96, 4.98 56.27, 4.09 54.52 C3.2 52.78, 2.44 50.95, 1.84 49.09 C1.23 47.23, 0.77 45.3, 0.46 43.37 C0.16 41.43, 0 39.46, 0 37.5 C0 35.54, 0.16 33.57, 0.46 31.63 C0.77 29.7, 1.23 27.77, 1.84 25.91 C2.44 24.05, 3.2 22.22, 4.09 20.48 C4.98 18.73, 6.01 17.04, 7.16 15.46 C8.31 13.88, 9.6 12.37, 10.98 10.98 C12.37 9.6, 13.88 8.31, 15.46 7.16 C17.04 6.01, 18.73 4.98, 20.48 4.09 C22.22 3.2, 24.05 2.44, 25.91 1.84 C27.77 1.23, 29.7 0.77, 31.63 0.46 C33.57 0.16, 35.54 0, 37.5 0 C39.46 0, 41.43 0.16, 43.37 0.46 C45.3 0.77, 47.23 1.23, 49.09 1.84 C50.95 2.44, 52.78 3.2, 54.52 4.09 C56.27 4.98, 57.96 6.01, 59.54 7.16 C61.12 8.31, 62.63 9.6, 64.02 10.98 C65.4 12.37, 66.69 13.88, 67.84 15.46 C68.99 17.04, 70.02 18.73, 70.91 20.48 C71.8 22.22, 72.56 24.05, 73.16 25.91 C73.77 27.77, 74.23 29.7, 74.54 31.63 C74.84 33.57, 74.92 36.52, 75 37.5 C75.08 38.48, 75.08 36.52, 75 37.5" stroke="none" stroke-width="0" fill="#ffd8a8"></path><path d="M75 37.5 C75 39.46, 74.84 41.43, 74.54 43.37 C74.23 45.3, 73.77 47.23, 73.16 49.09 C72.56 50.95, 71.8 52.78, 70.91 54.52 C70.02 56.27, 68.99 57.96, 67.84 59.54 C66.69 61.12, 65.4 62.63, 64.02 64.02 C62.63 65.4, 61.12 66.69, 59.54 67.84 C57.96 68.99, 56.27 70.02, 54.52 70.91 C52.78 71.8, 50.95 72.56, 49.09 73.16 C47.23 73.77, 45.3 74.23, 43.37 74.54 C41.43 74.84, 39.46 75, 37.5 75 C35.54 75, 33.57 74.84, 31.63 74.54 C29.7 74.23, 27.77 73.77, 25.91 73.16 C24.05 72.56, 22.22 71.8, 20.48 70.91 C18.73 70.02, 17.04 68.99, 15.46 67.84 C13.88 66.69, 12.37 65.4, 10.98 64.02 C9.6 62.63, 8.31 61.12, 7.16 59.54 C6.01 57.96, 4.98 56.27, 4.09 54.52 C3.2 52.78, 2.44 50.95, 1.84 49.09 C1.23 47.23, 0.77 45.3, 0.46 43.37 C0.16 41.43, 0 39.46, 0 37.5 C0 35.54, 0.16 33.57, 0.46 31.63 C0.77 29.7, 1.23 27.77, 1.84 25.91 C2.44 24.05, 3.2 22.22, 4.09 20.48 C4.98 18.73, 6.01 17.04, 7.16 15.46 C8.31 13.88, 9.6 12.37, 10.98 10.98 C12.37 9.6, 13.88 8.31, 15.46 7.16 C17.04 6.01, 18.73 4.98, 20.48 4.09 C22.22 3.2, 24.05 2.44, 25.91 1.84 C27.77 1.23, 29.7 0.77, 31.63 0.46 C33.57 0.16, 35.54 0, 37.5 0 C39.46 0, 41.43 0.16, 43.37 0.46 C45.3 0.77, 47.23 1.23, 49.09 1.84 C50.95 2.44, 52.78 3.2, 54.52 4.09 C56.27 4.98, 57.96 6.01, 59.54 7.16 C61.12 8.31, 62.63 9.6, 64.02 10.98 C65.4 12.37, 66.69 13.88, 67.84 15.46 C68.99 17.04, 70.02 18.73, 70.91 20.48 C71.8 22.22, 72.56 24.05, 73.16 25.91 C73.77 27.77, 74.23 29.7, 74.54 31.63 C74.84 33.57, 74.92 36.52, 75 37.5 C75.08 38.48, 75.08 36.52, 75 37.5" stroke="#1e1e1e" stroke-width="1" fill="none"></path></g><g transform="translate(210.01826249307868 496.23349570550454) rotate(0 5.6199951171875 12.5)"><text x="5.6199951171875" y="0" font-family="HanziPen SC, HanziPen Remote, Virgil, KaiTi, Segoe UI Emoji" font-size="20px" fill="#1e1e1e" text-anchor="middle" style="white-space: pre;" direction="ltr" dominant-baseline="text-before-edge">1</text></g><g stroke-linecap="round" transform="translate(480.44047619047615 470.91666666666606) rotate(0 37.5 37.5)"><path d="M75 37.5 C75 39.46, 74.84 41.43, 74.54 43.37 C74.23 45.3, 73.77 47.23, 73.16 49.09 C72.56 50.95, 71.8 52.78, 70.91 54.52 C70.02 56.27, 68.99 57.96, 67.84 59.54 C66.69 61.12, 65.4 62.63, 64.02 64.02 C62.63 65.4, 61.12 66.69, 59.54 67.84 C57.96 68.99, 56.27 70.02, 54.52 70.91 C52.78 71.8, 50.95 72.56, 49.09 73.16 C47.23 73.77, 45.3 74.23, 43.37 74.54 C41.43 74.84, 39.46 75, 37.5 75 C35.54 75, 33.57 74.84, 31.63 74.54 C29.7 74.23, 27.77 73.77, 25.91 73.16 C24.05 72.56, 22.22 71.8, 20.48 70.91 C18.73 70.02, 17.04 68.99, 15.46 67.84 C13.88 66.69, 12.37 65.4, 10.98 64.02 C9.6 62.63, 8.31 61.12, 7.16 59.54 C6.01 57.96, 4.98 56.27, 4.09 54.52 C3.2 52.78, 2.44 50.95, 1.84 49.09 C1.23 47.23, 0.77 45.3, 0.46 43.37 C0.16 41.43, 0 39.46, 0 37.5 C0 35.54, 0.16 33.57, 0.46 31.63 C0.77 29.7, 1.23 27.77, 1.84 25.91 C2.44 24.05, 3.2 22.22, 4.09 20.48 C4.98 18.73, 6.01 17.04, 7.16 15.46 C8.31 13.88, 9.6 12.37, 10.98 10.98 C12.37 9.6, 13.88 8.31, 15.46 7.16 C17.04 6.01, 18.73 4.98, 20.48 4.09 C22.22 3.2, 24.05 2.44, 25.91 1.84 C27.77 1.23, 29.7 0.77, 31.63 0.46 C33.57 0.16, 35.54 0, 37.5 0 C39.46 0, 41.43 0.16, 43.37 0.46 C45.3 0.77, 47.23 1.23, 49.09 1.84 C50.95 2.44, 52.78 3.2, 54.52 4.09 C56.27 4.98, 57.96 6.01, 59.54 7.16 C61.12 8.31, 62.63 9.6, 64.02 10.98 C65.4 12.37, 66.69 13.88, 67.84 15.46 C68.99 17.04, 70.02 18.73, 70.91 20.48 C71.8 22.22, 72.56 24.05, 73.16 25.91 C73.77 27.77, 74.23 29.7, 74.54 31.63 C74.84 33.57, 74.92 36.52, 75 37.5 C75.08 38.48, 75.08 36.52, 75 37.5" stroke="none" stroke-width="0" fill="#b2f2bb"></path><path d="M75 37.5 C75 39.46, 74.84 41.43, 74.54 43.37 C74.23 45.3, 73.77 47.23, 73.16 49.09 C72.56 50.95, 71.8 52.78, 70.91 54.52 C70.02 56.27, 68.99 57.96, 67.84 59.54 C66.69 61.12, 65.4 62.63, 64.02 64.02 C62.63 65.4, 61.12 66.69, 59.54 67.84 C57.96 68.99, 56.27 70.02, 54.52 70.91 C52.78 71.8, 50.95 72.56, 49.09 73.16 C47.23 73.77, 45.3 74.23, 43.37 74.54 C41.43 74.84, 39.46 75, 37.5 75 C35.54 75, 33.57 74.84, 31.63 74.54 C29.7 74.23, 27.77 73.77, 25.91 73.16 C24.05 72.56, 22.22 71.8, 20.48 70.91 C18.73 70.02, 17.04 68.99, 15.46 67.84 C13.88 66.69, 12.37 65.4, 10.98 64.02 C9.6 62.63, 8.31 61.12, 7.16 59.54 C6.01 57.96, 4.98 56.27, 4.09 54.52 C3.2 52.78, 2.44 50.95, 1.84 49.09 C1.23 47.23, 0.77 45.3, 0.46 43.37 C0.16 41.43, 0 39.46, 0 37.5 C0 35.54, 0.16 33.57, 0.46 31.63 C0.77 29.7, 1.23 27.77, 1.84 25.91 C2.44 24.05, 3.2 22.22, 4.09 20.48 C4.98 18.73, 6.01 17.04, 7.16 15.46 C8.31 13.88, 9.6 12.37, 10.98 10.98 C12.37 9.6, 13.88 8.31, 15.46 7.16 C17.04 6.01, 18.73 4.98, 20.48 4.09 C22.22 3.2, 24.05 2.44, 25.91 1.84 C27.77 1.23, 29.7 0.77, 31.63 0.46 C33.57 0.16, 35.54 0, 37.5 0 C39.46 0, 41.43 0.16, 43.37 0.46 C45.3 0.77, 47.23 1.23, 49.09 1.84 C50.95 2.44, 52.78 3.2, 54.52 4.09 C56.27 4.98, 57.96 6.01, 59.54 7.16 C61.12 8.31, 62.63 9.6, 64.02 10.98 C65.4 12.37, 66.69 13.88, 67.84 15.46 C68.99 17.04, 70.02 18.73, 70.91 20.48 C71.8 22.22, 72.56 24.05, 73.16 25.91 C73.77 27.77, 74.23 29.7, 74.54 31.63 C74.84 33.57, 74.92 36.52, 75 37.5 C75.08 38.48, 75.08 36.52, 75 37.5" stroke="#1e1e1e" stroke-width="1" fill="none"></path></g><g transform="translate(512.3039767787932 495.9001623721706) rotate(0 5.6199951171875 12.5)"><text x="5.6199951171875" y="0" font-family="HanziPen SC, HanziPen Remote, Virgil, KaiTi, Segoe UI Emoji" font-size="20px" fill="#1e1e1e" text-anchor="middle" style="white-space: pre;" direction="ltr" dominant-baseline="text-before-edge">9</text></g><g stroke-linecap="round" transform="translate(36.22619047619031 465.41666666666606) rotate(0 37.5 37.5)"><path d="M75 37.5 C75 39.46, 74.84 41.43, 74.54 43.37 C74.23 45.3, 73.77 47.23, 73.16 49.09 C72.56 50.95, 71.8 52.78, 70.91 54.52 C70.02 56.27, 68.99 57.96, 67.84 59.54 C66.69 61.12, 65.4 62.63, 64.02 64.02 C62.63 65.4, 61.12 66.69, 59.54 67.84 C57.96 68.99, 56.27 70.02, 54.52 70.91 C52.78 71.8, 50.95 72.56, 49.09 73.16 C47.23 73.77, 45.3 74.23, 43.37 74.54 C41.43 74.84, 39.46 75, 37.5 75 C35.54 75, 33.57 74.84, 31.63 74.54 C29.7 74.23, 27.77 73.77, 25.91 73.16 C24.05 72.56, 22.22 71.8, 20.48 70.91 C18.73 70.02, 17.04 68.99, 15.46 67.84 C13.88 66.69, 12.37 65.4, 10.98 64.02 C9.6 62.63, 8.31 61.12, 7.16 59.54 C6.01 57.96, 4.98 56.27, 4.09 54.52 C3.2 52.78, 2.44 50.95, 1.84 49.09 C1.23 47.23, 0.77 45.3, 0.46 43.37 C0.16 41.43, 0 39.46, 0 37.5 C0 35.54, 0.16 33.57, 0.46 31.63 C0.77 29.7, 1.23 27.77, 1.84 25.91 C2.44 24.05, 3.2 22.22, 4.09 20.48 C4.98 18.73, 6.01 17.04, 7.16 15.46 C8.31 13.88, 9.6 12.37, 10.98 10.98 C12.37 9.6, 13.88 8.31, 15.46 7.16 C17.04 6.01, 18.73 4.98, 20.48 4.09 C22.22 3.2, 24.05 2.44, 25.91 1.84 C27.77 1.23, 29.7 0.77, 31.63 0.46 C33.57 0.16, 35.54 0, 37.5 0 C39.46 0, 41.43 0.16, 43.37 0.46 C45.3 0.77, 47.23 1.23, 49.09 1.84 C50.95 2.44, 52.78 3.2, 54.52 4.09 C56.27 4.98, 57.96 6.01, 59.54 7.16 C61.12 8.31, 62.63 9.6, 64.02 10.98 C65.4 12.37, 66.69 13.88, 67.84 15.46 C68.99 17.04, 70.02 18.73, 70.91 20.48 C71.8 22.22, 72.56 24.05, 73.16 25.91 C73.77 27.77, 74.23 29.7, 74.54 31.63 C74.84 33.57, 74.92 36.52, 75 37.5 C75.08 38.48, 75.08 36.52, 75 37.5" stroke="none" stroke-width="0" fill="#b2f2bb"></path><path d="M75 37.5 C75 39.46, 74.84 41.43, 74.54 43.37 C74.23 45.3, 73.77 47.23, 73.16 49.09 C72.56 50.95, 71.8 52.78, 70.91 54.52 C70.02 56.27, 68.99 57.96, 67.84 59.54 C66.69 61.12, 65.4 62.63, 64.02 64.02 C62.63 65.4, 61.12 66.69, 59.54 67.84 C57.96 68.99, 56.27 70.02, 54.52 70.91 C52.78 71.8, 50.95 72.56, 49.09 73.16 C47.23 73.77, 45.3 74.23, 43.37 74.54 C41.43 74.84, 39.46 75, 37.5 75 C35.54 75, 33.57 74.84, 31.63 74.54 C29.7 74.23, 27.77 73.77, 25.91 73.16 C24.05 72.56, 22.22 71.8, 20.48 70.91 C18.73 70.02, 17.04 68.99, 15.46 67.84 C13.88 66.69, 12.37 65.4, 10.98 64.02 C9.6 62.63, 8.31 61.12, 7.16 59.54 C6.01 57.96, 4.98 56.27, 4.09 54.52 C3.2 52.78, 2.44 50.95, 1.84 49.09 C1.23 47.23, 0.77 45.3, 0.46 43.37 C0.16 41.43, 0 39.46, 0 37.5 C0 35.54, 0.16 33.57, 0.46 31.63 C0.77 29.7, 1.23 27.77, 1.84 25.91 C2.44 24.05, 3.2 22.22, 4.09 20.48 C4.98 18.73, 6.01 17.04, 7.16 15.46 C8.31 13.88, 9.6 12.37, 10.98 10.98 C12.37 9.6, 13.88 8.31, 15.46 7.16 C17.04 6.01, 18.73 4.98, 20.48 4.09 C22.22 3.2, 24.05 2.44, 25.91 1.84 C27.77 1.23, 29.7 0.77, 31.63 0.46 C33.57 0.16, 35.54 0, 37.5 0 C39.46 0, 41.43 0.16, 43.37 0.46 C45.3 0.77, 47.23 1.23, 49.09 1.84 C50.95 2.44, 52.78 3.2, 54.52 4.09 C56.27 4.98, 57.96 6.01, 59.54 7.16 C61.12 8.31, 62.63 9.6, 64.02 10.98 C65.4 12.37, 66.69 13.88, 67.84 15.46 C68.99 17.04, 70.02 18.73, 70.91 20.48 C71.8 22.22, 72.56 24.05, 73.16 25.91 C73.77 27.77, 74.23 29.7, 74.54 31.63 C74.84 33.57, 74.92 36.52, 75 37.5 C75.08 38.48, 75.08 36.52, 75 37.5" stroke="#1e1e1e" stroke-width="1" fill="none"></path></g><g transform="translate(68.08969106450724 490.4001623721706) rotate(0 5.6199951171875 12.5)"><text x="5.6199951171875" y="0" font-family="HanziPen SC, HanziPen Remote, Virgil, KaiTi, Segoe UI Emoji" font-size="20px" fill="#1e1e1e" text-anchor="middle" style="white-space: pre;" direction="ltr" dominant-baseline="text-before-edge">4</text></g><g stroke-linecap="round"><g transform="translate(114.22739629101937 510.41015234056067) rotate(0 30.68527121963953 1.160877454588217)"><path d="M0 0 C10.23 0.39, 51.14 1.93, 61.37 2.32 M0 0 C10.23 0.39, 51.14 1.93, 61.37 2.32" stroke="#1e1e1e" stroke-width="1" fill="none"></path></g><g transform="translate(114.22739629101937 510.41015234056067) rotate(0 30.68527121963953 1.160877454588217)"><path d="M32.81 11.51 C44.14 7.86, 55.47 4.22, 61.37 2.32 M32.81 11.51 C42.06 8.53, 51.31 5.56, 61.37 2.32" stroke="#1e1e1e" stroke-width="1" fill="none"></path></g><g transform="translate(114.22739629101937 510.41015234056067) rotate(0 30.68527121963953 1.160877454588217)"><path d="M33.59 -9 C44.61 -4.51, 55.63 -0.02, 61.37 2.32 M33.59 -9 C42.58 -5.33, 51.58 -1.67, 61.37 2.32" stroke="#1e1e1e" stroke-width="1" fill="none"></path></g></g><mask></mask><g stroke-linecap="round"><g transform="translate(261.4671603610302 516.064266149765) rotate(0 32.35992827440981 -1.2270524698963072)"><path d="M0 0 C10.79 -0.41, 53.93 -2.05, 64.72 -2.45 M0 0 C10.79 -0.41, 53.93 -2.05, 64.72 -2.45" stroke="#1e1e1e" stroke-width="1" fill="none"></path></g><g transform="translate(261.4671603610302 516.064266149765) rotate(0 32.35992827440981 -1.2270524698963072)"><path d="M36.94 8.87 C46.02 5.17, 55.1 1.47, 64.72 -2.45 M36.94 8.87 C46.31 5.05, 55.69 1.23, 64.72 -2.45" stroke="#1e1e1e" stroke-width="1" fill="none"></path></g><g transform="translate(261.4671603610302 516.064266149765) rotate(0 32.35992827440981 -1.2270524698963072)"><path d="M36.16 -11.64 C45.49 -8.64, 54.83 -5.64, 64.72 -2.45 M36.16 -11.64 C45.8 -8.54, 55.44 -5.44, 64.72 -2.45" stroke="#1e1e1e" stroke-width="1" fill="none"></path></g></g><mask></mask><g stroke-linecap="round"><g transform="translate(409.00397829028043 510.646000377752) rotate(0 35.845470213434396 38.04453939884752)"><path d="M0 0 C11.95 12.68, 59.74 63.41, 71.69 76.09 M0 0 C11.95 12.68, 59.74 63.41, 71.69 76.09" stroke="#1e1e1e" stroke-width="1" fill="none"></path></g><g transform="translate(409.00397829028043 510.646000377752) rotate(0 35.845470213434396 38.04453939884752)"><path d="M44.89 62.61 C52.78 66.58, 60.67 70.54, 71.69 76.09 M44.89 62.61 C53.3 66.84, 61.7 71.06, 71.69 76.09" stroke="#1e1e1e" stroke-width="1" fill="none"></path></g><g transform="translate(409.00397829028043 510.646000377752) rotate(0 35.845470213434396 38.04453939884752)"><path d="M59.83 48.53 C63.32 56.65, 66.81 64.76, 71.69 76.09 M59.83 48.53 C63.55 57.18, 67.27 65.82, 71.69 76.09" stroke="#1e1e1e" stroke-width="1" fill="none"></path></g></g><mask></mask><g stroke-linecap="round"><g transform="translate(233.33333333333326 461.6666666666665) rotate(0 134.16666666666674 -18.751912488313337)"><path d="M0 0 C22.22 -6.67, 88.61 -40.42, 133.33 -40 C178.06 -39.58, 245.83 -4.58, 268.33 2.5 M0 0 C22.22 -6.67, 88.61 -40.42, 133.33 -40 C178.06 -39.58, 245.83 -4.58, 268.33 2.5" stroke="#1e1e1e" stroke-width="1" fill="none"></path></g><g transform="translate(233.33333333333326 461.6666666666665) rotate(0 134.16666666666674 -18.751912488313337)"><path d="M238.35 1.58 C247.27 1.85, 256.19 2.13, 268.33 2.5 M238.35 1.58 C246.16 1.82, 253.97 2.06, 268.33 2.5" stroke="#1e1e1e" stroke-width="1" fill="none"></path></g><g transform="translate(233.33333333333326 461.6666666666665) rotate(0 134.16666666666674 -18.751912488313337)"><path d="M245.95 -17.48 C252.61 -11.54, 259.27 -5.59, 268.33 2.5 M245.95 -17.48 C251.78 -12.27, 257.61 -7.07, 268.33 2.5" stroke="#1e1e1e" stroke-width="1" fill="none"></path></g></g><mask></mask><g transform="translate(505.83333333333326 605) rotate(0 13.989974975585938 12.5)"><text x="0" y="0" font-family="HanziPen SC, HanziPen Remote, Virgil, KaiTi, Segoe UI Emoji" font-size="20px" fill="#1e1e1e" text-anchor="start" style="white-space: pre;" direction="ltr" dominant-baseline="text-before-edge">null</text></g><g stroke-linecap="round" transform="translate(197.72619047619128 640.3333333333335) rotate(0 37.5 37.5)"><path d="M75 37.5 C75 39.46, 74.84 41.43, 74.54 43.37 C74.23 45.3, 73.77 47.23, 73.16 49.09 C72.56 50.95, 71.8 52.78, 70.91 54.52 C70.02 56.27, 68.99 57.96, 67.84 59.54 C66.69 61.12, 65.4 62.63, 64.02 64.02 C62.63 65.4, 61.12 66.69, 59.54 67.84 C57.96 68.99, 56.27 70.02, 54.52 70.91 C52.78 71.8, 50.95 72.56, 49.09 73.16 C47.23 73.77, 45.3 74.23, 43.37 74.54 C41.43 74.84, 39.46 75, 37.5 75 C35.54 75, 33.57 74.84, 31.63 74.54 C29.7 74.23, 27.77 73.77, 25.91 73.16 C24.05 72.56, 22.22 71.8, 20.48 70.91 C18.73 70.02, 17.04 68.99, 15.46 67.84 C13.88 66.69, 12.37 65.4, 10.98 64.02 C9.6 62.63, 8.31 61.12, 7.16 59.54 C6.01 57.96, 4.98 56.27, 4.09 54.52 C3.2 52.78, 2.44 50.95, 1.84 49.09 C1.23 47.23, 0.77 45.3, 0.46 43.37 C0.16 41.43, 0 39.46, 0 37.5 C0 35.54, 0.16 33.57, 0.46 31.63 C0.77 29.7, 1.23 27.77, 1.84 25.91 C2.44 24.05, 3.2 22.22, 4.09 20.48 C4.98 18.73, 6.01 17.04, 7.16 15.46 C8.31 13.88, 9.6 12.37, 10.98 10.98 C12.37 9.6, 13.88 8.31, 15.46 7.16 C17.04 6.01, 18.73 4.98, 20.48 4.09 C22.22 3.2, 24.05 2.44, 25.91 1.84 C27.77 1.23, 29.7 0.77, 31.63 0.46 C33.57 0.16, 35.54 0, 37.5 0 C39.46 0, 41.43 0.16, 43.37 0.46 C45.3 0.77, 47.23 1.23, 49.09 1.84 C50.95 2.44, 52.78 3.2, 54.52 4.09 C56.27 4.98, 57.96 6.01, 59.54 7.16 C61.12 8.31, 62.63 9.6, 64.02 10.98 C65.4 12.37, 66.69 13.88, 67.84 15.46 C68.99 17.04, 70.02 18.73, 70.91 20.48 C71.8 22.22, 72.56 24.05, 73.16 25.91 C73.77 27.77, 74.23 29.7, 74.54 31.63 C74.84 33.57, 74.92 36.52, 75 37.5 C75.08 38.48, 75.08 36.52, 75 37.5" stroke="none" stroke-width="0" fill="#b2f2bb"></path><path d="M75 37.5 C75 39.46, 74.84 41.43, 74.54 43.37 C74.23 45.3, 73.77 47.23, 73.16 49.09 C72.56 50.95, 71.8 52.78, 70.91 54.52 C70.02 56.27, 68.99 57.96, 67.84 59.54 C66.69 61.12, 65.4 62.63, 64.02 64.02 C62.63 65.4, 61.12 66.69, 59.54 67.84 C57.96 68.99, 56.27 70.02, 54.52 70.91 C52.78 71.8, 50.95 72.56, 49.09 73.16 C47.23 73.77, 45.3 74.23, 43.37 74.54 C41.43 74.84, 39.46 75, 37.5 75 C35.54 75, 33.57 74.84, 31.63 74.54 C29.7 74.23, 27.77 73.77, 25.91 73.16 C24.05 72.56, 22.22 71.8, 20.48 70.91 C18.73 70.02, 17.04 68.99, 15.46 67.84 C13.88 66.69, 12.37 65.4, 10.98 64.02 C9.6 62.63, 8.31 61.12, 7.16 59.54 C6.01 57.96, 4.98 56.27, 4.09 54.52 C3.2 52.78, 2.44 50.95, 1.84 49.09 C1.23 47.23, 0.77 45.3, 0.46 43.37 C0.16 41.43, 0 39.46, 0 37.5 C0 35.54, 0.16 33.57, 0.46 31.63 C0.77 29.7, 1.23 27.77, 1.84 25.91 C2.44 24.05, 3.2 22.22, 4.09 20.48 C4.98 18.73, 6.01 17.04, 7.16 15.46 C8.31 13.88, 9.6 12.37, 10.98 10.98 C12.37 9.6, 13.88 8.31, 15.46 7.16 C17.04 6.01, 18.73 4.98, 20.48 4.09 C22.22 3.2, 24.05 2.44, 25.91 1.84 C27.77 1.23, 29.7 0.77, 31.63 0.46 C33.57 0.16, 35.54 0, 37.5 0 C39.46 0, 41.43 0.16, 43.37 0.46 C45.3 0.77, 47.23 1.23, 49.09 1.84 C50.95 2.44, 52.78 3.2, 54.52 4.09 C56.27 4.98, 57.96 6.01, 59.54 7.16 C61.12 8.31, 62.63 9.6, 64.02 10.98 C65.4 12.37, 66.69 13.88, 67.84 15.46 C68.99 17.04, 70.02 18.73, 70.91 20.48 C71.8 22.22, 72.56 24.05, 73.16 25.91 C73.77 27.77, 74.23 29.7, 74.54 31.63 C74.84 33.57, 74.92 36.52, 75 37.5 C75.08 38.48, 75.08 36.52, 75 37.5" stroke="#1e1e1e" stroke-width="1" fill="none"></path></g><g transform="translate(229.58969106450786 665.316829038838) rotate(0 5.6199951171875 12.5)"><text x="5.6199951171875" y="0" font-family="HanziPen SC, HanziPen Remote, Virgil, KaiTi, Segoe UI Emoji" font-size="20px" fill="#1e1e1e" text-anchor="middle" style="white-space: pre;" direction="ltr" dominant-baseline="text-before-edge">1</text></g><g stroke-linecap="round" transform="translate(349.19047619047706 642.3333333333335) rotate(0 37.5 37.5)"><path d="M75 37.5 C75 39.46, 74.84 41.43, 74.54 43.37 C74.23 45.3, 73.77 47.23, 73.16 49.09 C72.56 50.95, 71.8 52.78, 70.91 54.52 C70.02 56.27, 68.99 57.96, 67.84 59.54 C66.69 61.12, 65.4 62.63, 64.02 64.02 C62.63 65.4, 61.12 66.69, 59.54 67.84 C57.96 68.99, 56.27 70.02, 54.52 70.91 C52.78 71.8, 50.95 72.56, 49.09 73.16 C47.23 73.77, 45.3 74.23, 43.37 74.54 C41.43 74.84, 39.46 75, 37.5 75 C35.54 75, 33.57 74.84, 31.63 74.54 C29.7 74.23, 27.77 73.77, 25.91 73.16 C24.05 72.56, 22.22 71.8, 20.48 70.91 C18.73 70.02, 17.04 68.99, 15.46 67.84 C13.88 66.69, 12.37 65.4, 10.98 64.02 C9.6 62.63, 8.31 61.12, 7.16 59.54 C6.01 57.96, 4.98 56.27, 4.09 54.52 C3.2 52.78, 2.44 50.95, 1.84 49.09 C1.23 47.23, 0.77 45.3, 0.46 43.37 C0.16 41.43, 0 39.46, 0 37.5 C0 35.54, 0.16 33.57, 0.46 31.63 C0.77 29.7, 1.23 27.77, 1.84 25.91 C2.44 24.05, 3.2 22.22, 4.09 20.48 C4.98 18.73, 6.01 17.04, 7.16 15.46 C8.31 13.88, 9.6 12.37, 10.98 10.98 C12.37 9.6, 13.88 8.31, 15.46 7.16 C17.04 6.01, 18.73 4.98, 20.48 4.09 C22.22 3.2, 24.05 2.44, 25.91 1.84 C27.77 1.23, 29.7 0.77, 31.63 0.46 C33.57 0.16, 35.54 0, 37.5 0 C39.46 0, 41.43 0.16, 43.37 0.46 C45.3 0.77, 47.23 1.23, 49.09 1.84 C50.95 2.44, 52.78 3.2, 54.52 4.09 C56.27 4.98, 57.96 6.01, 59.54 7.16 C61.12 8.31, 62.63 9.6, 64.02 10.98 C65.4 12.37, 66.69 13.88, 67.84 15.46 C68.99 17.04, 70.02 18.73, 70.91 20.48 C71.8 22.22, 72.56 24.05, 73.16 25.91 C73.77 27.77, 74.23 29.7, 74.54 31.63 C74.84 33.57, 74.92 36.52, 75 37.5 C75.08 38.48, 75.08 36.52, 75 37.5" stroke="none" stroke-width="0" fill="#b2f2bb"></path><path d="M75 37.5 C75 39.46, 74.84 41.43, 74.54 43.37 C74.23 45.3, 73.77 47.23, 73.16 49.09 C72.56 50.95, 71.8 52.78, 70.91 54.52 C70.02 56.27, 68.99 57.96, 67.84 59.54 C66.69 61.12, 65.4 62.63, 64.02 64.02 C62.63 65.4, 61.12 66.69, 59.54 67.84 C57.96 68.99, 56.27 70.02, 54.52 70.91 C52.78 71.8, 50.95 72.56, 49.09 73.16 C47.23 73.77, 45.3 74.23, 43.37 74.54 C41.43 74.84, 39.46 75, 37.5 75 C35.54 75, 33.57 74.84, 31.63 74.54 C29.7 74.23, 27.77 73.77, 25.91 73.16 C24.05 72.56, 22.22 71.8, 20.48 70.91 C18.73 70.02, 17.04 68.99, 15.46 67.84 C13.88 66.69, 12.37 65.4, 10.98 64.02 C9.6 62.63, 8.31 61.12, 7.16 59.54 C6.01 57.96, 4.98 56.27, 4.09 54.52 C3.2 52.78, 2.44 50.95, 1.84 49.09 C1.23 47.23, 0.77 45.3, 0.46 43.37 C0.16 41.43, 0 39.46, 0 37.5 C0 35.54, 0.16 33.57, 0.46 31.63 C0.77 29.7, 1.23 27.77, 1.84 25.91 C2.44 24.05, 3.2 22.22, 4.09 20.48 C4.98 18.73, 6.01 17.04, 7.16 15.46 C8.31 13.88, 9.6 12.37, 10.98 10.98 C12.37 9.6, 13.88 8.31, 15.46 7.16 C17.04 6.01, 18.73 4.98, 20.48 4.09 C22.22 3.2, 24.05 2.44, 25.91 1.84 C27.77 1.23, 29.7 0.77, 31.63 0.46 C33.57 0.16, 35.54 0, 37.5 0 C39.46 0, 41.43 0.16, 43.37 0.46 C45.3 0.77, 47.23 1.23, 49.09 1.84 C50.95 2.44, 52.78 3.2, 54.52 4.09 C56.27 4.98, 57.96 6.01, 59.54 7.16 C61.12 8.31, 62.63 9.6, 64.02 10.98 C65.4 12.37, 66.69 13.88, 67.84 15.46 C68.99 17.04, 70.02 18.73, 70.91 20.48 C71.8 22.22, 72.56 24.05, 73.16 25.91 C73.77 27.77, 74.23 29.7, 74.54 31.63 C74.84 33.57, 74.92 36.52, 75 37.5 C75.08 38.48, 75.08 36.52, 75 37.5" stroke="#1e1e1e" stroke-width="1" fill="none"></path></g><g transform="translate(381.0539767787941 667.316829038838) rotate(0 5.6199951171875 12.5)"><text x="5.6199951171875" y="0" font-family="HanziPen SC, HanziPen Remote, Virgil, KaiTi, Segoe UI Emoji" font-size="20px" fill="#1e1e1e" text-anchor="middle" style="white-space: pre;" direction="ltr" dominant-baseline="text-before-edge">9</text></g><g stroke-linecap="round" transform="translate(45.809523809523455 632.6666666666665) rotate(0 37.5 37.5)"><path d="M75 37.5 C75 39.46, 74.84 41.43, 74.54 43.37 C74.23 45.3, 73.77 47.23, 73.16 49.09 C72.56 50.95, 71.8 52.78, 70.91 54.52 C70.02 56.27, 68.99 57.96, 67.84 59.54 C66.69 61.12, 65.4 62.63, 64.02 64.02 C62.63 65.4, 61.12 66.69, 59.54 67.84 C57.96 68.99, 56.27 70.02, 54.52 70.91 C52.78 71.8, 50.95 72.56, 49.09 73.16 C47.23 73.77, 45.3 74.23, 43.37 74.54 C41.43 74.84, 39.46 75, 37.5 75 C35.54 75, 33.57 74.84, 31.63 74.54 C29.7 74.23, 27.77 73.77, 25.91 73.16 C24.05 72.56, 22.22 71.8, 20.48 70.91 C18.73 70.02, 17.04 68.99, 15.46 67.84 C13.88 66.69, 12.37 65.4, 10.98 64.02 C9.6 62.63, 8.31 61.12, 7.16 59.54 C6.01 57.96, 4.98 56.27, 4.09 54.52 C3.2 52.78, 2.44 50.95, 1.84 49.09 C1.23 47.23, 0.77 45.3, 0.46 43.37 C0.16 41.43, 0 39.46, 0 37.5 C0 35.54, 0.16 33.57, 0.46 31.63 C0.77 29.7, 1.23 27.77, 1.84 25.91 C2.44 24.05, 3.2 22.22, 4.09 20.48 C4.98 18.73, 6.01 17.04, 7.16 15.46 C8.31 13.88, 9.6 12.37, 10.98 10.98 C12.37 9.6, 13.88 8.31, 15.46 7.16 C17.04 6.01, 18.73 4.98, 20.48 4.09 C22.22 3.2, 24.05 2.44, 25.91 1.84 C27.77 1.23, 29.7 0.77, 31.63 0.46 C33.57 0.16, 35.54 0, 37.5 0 C39.46 0, 41.43 0.16, 43.37 0.46 C45.3 0.77, 47.23 1.23, 49.09 1.84 C50.95 2.44, 52.78 3.2, 54.52 4.09 C56.27 4.98, 57.96 6.01, 59.54 7.16 C61.12 8.31, 62.63 9.6, 64.02 10.98 C65.4 12.37, 66.69 13.88, 67.84 15.46 C68.99 17.04, 70.02 18.73, 70.91 20.48 C71.8 22.22, 72.56 24.05, 73.16 25.91 C73.77 27.77, 74.23 29.7, 74.54 31.63 C74.84 33.57, 74.92 36.52, 75 37.5 C75.08 38.48, 75.08 36.52, 75 37.5" stroke="none" stroke-width="0" fill="#b2f2bb"></path><path d="M75 37.5 C75 39.46, 74.84 41.43, 74.54 43.37 C74.23 45.3, 73.77 47.23, 73.16 49.09 C72.56 50.95, 71.8 52.78, 70.91 54.52 C70.02 56.27, 68.99 57.96, 67.84 59.54 C66.69 61.12, 65.4 62.63, 64.02 64.02 C62.63 65.4, 61.12 66.69, 59.54 67.84 C57.96 68.99, 56.27 70.02, 54.52 70.91 C52.78 71.8, 50.95 72.56, 49.09 73.16 C47.23 73.77, 45.3 74.23, 43.37 74.54 C41.43 74.84, 39.46 75, 37.5 75 C35.54 75, 33.57 74.84, 31.63 74.54 C29.7 74.23, 27.77 73.77, 25.91 73.16 C24.05 72.56, 22.22 71.8, 20.48 70.91 C18.73 70.02, 17.04 68.99, 15.46 67.84 C13.88 66.69, 12.37 65.4, 10.98 64.02 C9.6 62.63, 8.31 61.12, 7.16 59.54 C6.01 57.96, 4.98 56.27, 4.09 54.52 C3.2 52.78, 2.44 50.95, 1.84 49.09 C1.23 47.23, 0.77 45.3, 0.46 43.37 C0.16 41.43, 0 39.46, 0 37.5 C0 35.54, 0.16 33.57, 0.46 31.63 C0.77 29.7, 1.23 27.77, 1.84 25.91 C2.44 24.05, 3.2 22.22, 4.09 20.48 C4.98 18.73, 6.01 17.04, 7.16 15.46 C8.31 13.88, 9.6 12.37, 10.98 10.98 C12.37 9.6, 13.88 8.31, 15.46 7.16 C17.04 6.01, 18.73 4.98, 20.48 4.09 C22.22 3.2, 24.05 2.44, 25.91 1.84 C27.77 1.23, 29.7 0.77, 31.63 0.46 C33.57 0.16, 35.54 0, 37.5 0 C39.46 0, 41.43 0.16, 43.37 0.46 C45.3 0.77, 47.23 1.23, 49.09 1.84 C50.95 2.44, 52.78 3.2, 54.52 4.09 C56.27 4.98, 57.96 6.01, 59.54 7.16 C61.12 8.31, 62.63 9.6, 64.02 10.98 C65.4 12.37, 66.69 13.88, 67.84 15.46 C68.99 17.04, 70.02 18.73, 70.91 20.48 C71.8 22.22, 72.56 24.05, 73.16 25.91 C73.77 27.77, 74.23 29.7, 74.54 31.63 C74.84 33.57, 74.92 36.52, 75 37.5 C75.08 38.48, 75.08 36.52, 75 37.5" stroke="#1e1e1e" stroke-width="1" fill="none"></path></g><g transform="translate(77.67302439784027 657.650162372171) rotate(0 5.6199951171875 12.5)"><text x="5.6199951171875" y="0" font-family="HanziPen SC, HanziPen Remote, Virgil, KaiTi, Segoe UI Emoji" font-size="20px" fill="#1e1e1e" text-anchor="middle" style="white-space: pre;" direction="ltr" dominant-baseline="text-before-edge">4</text></g><g stroke-linecap="round"><g transform="translate(123.81072962435337 677.6601523405593) rotate(0 30.68527121963953 1.160877454588217)"><path d="M0 0 C10.23 0.39, 51.14 1.93, 61.37 2.32 M0 0 C10.23 0.39, 51.14 1.93, 61.37 2.32" stroke="#1e1e1e" stroke-width="1" fill="none"></path></g><g transform="translate(123.81072962435337 677.6601523405593) rotate(0 30.68527121963953 1.160877454588217)"><path d="M32.81 11.51 C41.77 8.63, 50.73 5.75, 61.37 2.32 M32.81 11.51 C38.89 9.55, 44.96 7.6, 61.37 2.32" stroke="#1e1e1e" stroke-width="1" fill="none"></path></g><g transform="translate(123.81072962435337 677.6601523405593) rotate(0 30.68527121963953 1.160877454588217)"><path d="M33.59 -9 C42.3 -5.45, 51.02 -1.9, 61.37 2.32 M33.59 -9 C39.5 -6.59, 45.41 -4.18, 61.37 2.32" stroke="#1e1e1e" stroke-width="1" fill="none"></path></g></g><mask></mask><g stroke-linecap="round"><g transform="translate(277.75397829028134 682.0626670444194) rotate(0 30.845470213434282 -0.7054606011524811)"><path d="M0 0 C10.28 -0.24, 51.41 -1.18, 61.69 -1.41 M0 0 C10.28 -0.24, 51.41 -1.18, 61.69 -1.41" stroke="#1e1e1e" stroke-width="1" fill="none"></path></g><g transform="translate(277.75397829028134 682.0626670444194) rotate(0 30.845470213434282 -0.7054606011524811)"><path d="M33.74 9.49 C40.79 6.74, 47.85 3.99, 61.69 -1.41 M33.74 9.49 C40.18 6.98, 46.62 4.47, 61.69 -1.41" stroke="#1e1e1e" stroke-width="1" fill="none"></path></g><g transform="translate(277.75397829028134 682.0626670444194) rotate(0 30.845470213434282 -0.7054606011524811)"><path d="M33.27 -11.02 C40.44 -8.6, 47.61 -6.17, 61.69 -1.41 M33.27 -11.02 C39.82 -8.81, 46.36 -6.6, 61.69 -1.41" stroke="#1e1e1e" stroke-width="1" fill="none"></path></g></g><mask></mask><g stroke-linecap="round" transform="translate(328.535714285714 109.91666666666697) rotate(0 37.5 37.5)"><path d="M75 37.5 C75 39.46, 74.84 41.43, 74.54 43.37 C74.23 45.3, 73.77 47.23, 73.16 49.09 C72.56 50.95, 71.8 52.78, 70.91 54.52 C70.02 56.27, 68.99 57.96, 67.84 59.54 C66.69 61.12, 65.4 62.63, 64.02 64.02 C62.63 65.4, 61.12 66.69, 59.54 67.84 C57.96 68.99, 56.27 70.02, 54.52 70.91 C52.78 71.8, 50.95 72.56, 49.09 73.16 C47.23 73.77, 45.3 74.23, 43.37 74.54 C41.43 74.84, 39.46 75, 37.5 75 C35.54 75, 33.57 74.84, 31.63 74.54 C29.7 74.23, 27.77 73.77, 25.91 73.16 C24.05 72.56, 22.22 71.8, 20.48 70.91 C18.73 70.02, 17.04 68.99, 15.46 67.84 C13.88 66.69, 12.37 65.4, 10.98 64.02 C9.6 62.63, 8.31 61.12, 7.16 59.54 C6.01 57.96, 4.98 56.27, 4.09 54.52 C3.2 52.78, 2.44 50.95, 1.84 49.09 C1.23 47.23, 0.77 45.3, 0.46 43.37 C0.16 41.43, 0 39.46, 0 37.5 C0 35.54, 0.16 33.57, 0.46 31.63 C0.77 29.7, 1.23 27.77, 1.84 25.91 C2.44 24.05, 3.2 22.22, 4.09 20.48 C4.98 18.73, 6.01 17.04, 7.16 15.46 C8.31 13.88, 9.6 12.37, 10.98 10.98 C12.37 9.6, 13.88 8.31, 15.46 7.16 C17.04 6.01, 18.73 4.98, 20.48 4.09 C22.22 3.2, 24.05 2.44, 25.91 1.84 C27.77 1.23, 29.7 0.77, 31.63 0.46 C33.57 0.16, 35.54 0, 37.5 0 C39.46 0, 41.43 0.16, 43.37 0.46 C45.3 0.77, 47.23 1.23, 49.09 1.84 C50.95 2.44, 52.78 3.2, 54.52 4.09 C56.27 4.98, 57.96 6.01, 59.54 7.16 C61.12 8.31, 62.63 9.6, 64.02 10.98 C65.4 12.37, 66.69 13.88, 67.84 15.46 C68.99 17.04, 70.02 18.73, 70.91 20.48 C71.8 22.22, 72.56 24.05, 73.16 25.91 C73.77 27.77, 74.23 29.7, 74.54 31.63 C74.84 33.57, 74.92 36.52, 75 37.5 C75.08 38.48, 75.08 36.52, 75 37.5" stroke="none" stroke-width="0" fill="#b2f2bb"></path><path d="M75 37.5 C75 39.46, 74.84 41.43, 74.54 43.37 C74.23 45.3, 73.77 47.23, 73.16 49.09 C72.56 50.95, 71.8 52.78, 70.91 54.52 C70.02 56.27, 68.99 57.96, 67.84 59.54 C66.69 61.12, 65.4 62.63, 64.02 64.02 C62.63 65.4, 61.12 66.69, 59.54 67.84 C57.96 68.99, 56.27 70.02, 54.52 70.91 C52.78 71.8, 50.95 72.56, 49.09 73.16 C47.23 73.77, 45.3 74.23, 43.37 74.54 C41.43 74.84, 39.46 75, 37.5 75 C35.54 75, 33.57 74.84, 31.63 74.54 C29.7 74.23, 27.77 73.77, 25.91 73.16 C24.05 72.56, 22.22 71.8, 20.48 70.91 C18.73 70.02, 17.04 68.99, 15.46 67.84 C13.88 66.69, 12.37 65.4, 10.98 64.02 C9.6 62.63, 8.31 61.12, 7.16 59.54 C6.01 57.96, 4.98 56.27, 4.09 54.52 C3.2 52.78, 2.44 50.95, 1.84 49.09 C1.23 47.23, 0.77 45.3, 0.46 43.37 C0.16 41.43, 0 39.46, 0 37.5 C0 35.54, 0.16 33.57, 0.46 31.63 C0.77 29.7, 1.23 27.77, 1.84 25.91 C2.44 24.05, 3.2 22.22, 4.09 20.48 C4.98 18.73, 6.01 17.04, 7.16 15.46 C8.31 13.88, 9.6 12.37, 10.98 10.98 C12.37 9.6, 13.88 8.31, 15.46 7.16 C17.04 6.01, 18.73 4.98, 20.48 4.09 C22.22 3.2, 24.05 2.44, 25.91 1.84 C27.77 1.23, 29.7 0.77, 31.63 0.46 C33.57 0.16, 35.54 0, 37.5 0 C39.46 0, 41.43 0.16, 43.37 0.46 C45.3 0.77, 47.23 1.23, 49.09 1.84 C50.95 2.44, 52.78 3.2, 54.52 4.09 C56.27 4.98, 57.96 6.01, 59.54 7.16 C61.12 8.31, 62.63 9.6, 64.02 10.98 C65.4 12.37, 66.69 13.88, 67.84 15.46 C68.99 17.04, 70.02 18.73, 70.91 20.48 C71.8 22.22, 72.56 24.05, 73.16 25.91 C73.77 27.77, 74.23 29.7, 74.54 31.63 C74.84 33.57, 74.92 36.52, 75 37.5 C75.08 38.48, 75.08 36.52, 75 37.5" stroke="#1e1e1e" stroke-width="1" fill="none"></path></g><g transform="translate(360.39921487403103 134.9001623721715) rotate(0 5.6199951171875 12.5)"><text x="5.6199951171875" y="0" font-family="HanziPen SC, HanziPen Remote, Virgil, KaiTi, Segoe UI Emoji" font-size="20px" fill="#1e1e1e" text-anchor="middle" style="white-space: pre;" direction="ltr" dominant-baseline="text-before-edge">1</text></g><g stroke-linecap="round" transform="translate(177.71428571428532 112.25000000000045) rotate(0 37.5 37.5)"><path d="M75 37.5 C75 39.46, 74.84 41.43, 74.54 43.37 C74.23 45.3, 73.77 47.23, 73.16 49.09 C72.56 50.95, 71.8 52.78, 70.91 54.52 C70.02 56.27, 68.99 57.96, 67.84 59.54 C66.69 61.12, 65.4 62.63, 64.02 64.02 C62.63 65.4, 61.12 66.69, 59.54 67.84 C57.96 68.99, 56.27 70.02, 54.52 70.91 C52.78 71.8, 50.95 72.56, 49.09 73.16 C47.23 73.77, 45.3 74.23, 43.37 74.54 C41.43 74.84, 39.46 75, 37.5 75 C35.54 75, 33.57 74.84, 31.63 74.54 C29.7 74.23, 27.77 73.77, 25.91 73.16 C24.05 72.56, 22.22 71.8, 20.48 70.91 C18.73 70.02, 17.04 68.99, 15.46 67.84 C13.88 66.69, 12.37 65.4, 10.98 64.02 C9.6 62.63, 8.31 61.12, 7.16 59.54 C6.01 57.96, 4.98 56.27, 4.09 54.52 C3.2 52.78, 2.44 50.95, 1.84 49.09 C1.23 47.23, 0.77 45.3, 0.46 43.37 C0.16 41.43, 0 39.46, 0 37.5 C0 35.54, 0.16 33.57, 0.46 31.63 C0.77 29.7, 1.23 27.77, 1.84 25.91 C2.44 24.05, 3.2 22.22, 4.09 20.48 C4.98 18.73, 6.01 17.04, 7.16 15.46 C8.31 13.88, 9.6 12.37, 10.98 10.98 C12.37 9.6, 13.88 8.31, 15.46 7.16 C17.04 6.01, 18.73 4.98, 20.48 4.09 C22.22 3.2, 24.05 2.44, 25.91 1.84 C27.77 1.23, 29.7 0.77, 31.63 0.46 C33.57 0.16, 35.54 0, 37.5 0 C39.46 0, 41.43 0.16, 43.37 0.46 C45.3 0.77, 47.23 1.23, 49.09 1.84 C50.95 2.44, 52.78 3.2, 54.52 4.09 C56.27 4.98, 57.96 6.01, 59.54 7.16 C61.12 8.31, 62.63 9.6, 64.02 10.98 C65.4 12.37, 66.69 13.88, 67.84 15.46 C68.99 17.04, 70.02 18.73, 70.91 20.48 C71.8 22.22, 72.56 24.05, 73.16 25.91 C73.77 27.77, 74.23 29.7, 74.54 31.63 C74.84 33.57, 74.92 36.52, 75 37.5 C75.08 38.48, 75.08 36.52, 75 37.5" stroke="none" stroke-width="0" fill="#ffd8a8"></path><path d="M75 37.5 C75 39.46, 74.84 41.43, 74.54 43.37 C74.23 45.3, 73.77 47.23, 73.16 49.09 C72.56 50.95, 71.8 52.78, 70.91 54.52 C70.02 56.27, 68.99 57.96, 67.84 59.54 C66.69 61.12, 65.4 62.63, 64.02 64.02 C62.63 65.4, 61.12 66.69, 59.54 67.84 C57.96 68.99, 56.27 70.02, 54.52 70.91 C52.78 71.8, 50.95 72.56, 49.09 73.16 C47.23 73.77, 45.3 74.23, 43.37 74.54 C41.43 74.84, 39.46 75, 37.5 75 C35.54 75, 33.57 74.84, 31.63 74.54 C29.7 74.23, 27.77 73.77, 25.91 73.16 C24.05 72.56, 22.22 71.8, 20.48 70.91 C18.73 70.02, 17.04 68.99, 15.46 67.84 C13.88 66.69, 12.37 65.4, 10.98 64.02 C9.6 62.63, 8.31 61.12, 7.16 59.54 C6.01 57.96, 4.98 56.27, 4.09 54.52 C3.2 52.78, 2.44 50.95, 1.84 49.09 C1.23 47.23, 0.77 45.3, 0.46 43.37 C0.16 41.43, 0 39.46, 0 37.5 C0 35.54, 0.16 33.57, 0.46 31.63 C0.77 29.7, 1.23 27.77, 1.84 25.91 C2.44 24.05, 3.2 22.22, 4.09 20.48 C4.98 18.73, 6.01 17.04, 7.16 15.46 C8.31 13.88, 9.6 12.37, 10.98 10.98 C12.37 9.6, 13.88 8.31, 15.46 7.16 C17.04 6.01, 18.73 4.98, 20.48 4.09 C22.22 3.2, 24.05 2.44, 25.91 1.84 C27.77 1.23, 29.7 0.77, 31.63 0.46 C33.57 0.16, 35.54 0, 37.5 0 C39.46 0, 41.43 0.16, 43.37 0.46 C45.3 0.77, 47.23 1.23, 49.09 1.84 C50.95 2.44, 52.78 3.2, 54.52 4.09 C56.27 4.98, 57.96 6.01, 59.54 7.16 C61.12 8.31, 62.63 9.6, 64.02 10.98 C65.4 12.37, 66.69 13.88, 67.84 15.46 C68.99 17.04, 70.02 18.73, 70.91 20.48 C71.8 22.22, 72.56 24.05, 73.16 25.91 C73.77 27.77, 74.23 29.7, 74.54 31.63 C74.84 33.57, 74.92 36.52, 75 37.5 C75.08 38.48, 75.08 36.52, 75 37.5" stroke="#1e1e1e" stroke-width="1" fill="none"></path></g><g transform="translate(209.5777863026023 137.233495705505) rotate(0 5.6199951171875 12.5)"><text x="5.6199951171875" y="0" font-family="HanziPen SC, HanziPen Remote, Virgil, KaiTi, Segoe UI Emoji" font-size="20px" fill="#1e1e1e" text-anchor="middle" style="white-space: pre;" direction="ltr" dominant-baseline="text-before-edge">5</text></g><g stroke-linecap="round" transform="translate(479.9999999999998 111.91666666666697) rotate(0 37.5 37.5)"><path d="M75 37.5 C75 39.46, 74.84 41.43, 74.54 43.37 C74.23 45.3, 73.77 47.23, 73.16 49.09 C72.56 50.95, 71.8 52.78, 70.91 54.52 C70.02 56.27, 68.99 57.96, 67.84 59.54 C66.69 61.12, 65.4 62.63, 64.02 64.02 C62.63 65.4, 61.12 66.69, 59.54 67.84 C57.96 68.99, 56.27 70.02, 54.52 70.91 C52.78 71.8, 50.95 72.56, 49.09 73.16 C47.23 73.77, 45.3 74.23, 43.37 74.54 C41.43 74.84, 39.46 75, 37.5 75 C35.54 75, 33.57 74.84, 31.63 74.54 C29.7 74.23, 27.77 73.77, 25.91 73.16 C24.05 72.56, 22.22 71.8, 20.48 70.91 C18.73 70.02, 17.04 68.99, 15.46 67.84 C13.88 66.69, 12.37 65.4, 10.98 64.02 C9.6 62.63, 8.31 61.12, 7.16 59.54 C6.01 57.96, 4.98 56.27, 4.09 54.52 C3.2 52.78, 2.44 50.95, 1.84 49.09 C1.23 47.23, 0.77 45.3, 0.46 43.37 C0.16 41.43, 0 39.46, 0 37.5 C0 35.54, 0.16 33.57, 0.46 31.63 C0.77 29.7, 1.23 27.77, 1.84 25.91 C2.44 24.05, 3.2 22.22, 4.09 20.48 C4.98 18.73, 6.01 17.04, 7.16 15.46 C8.31 13.88, 9.6 12.37, 10.98 10.98 C12.37 9.6, 13.88 8.31, 15.46 7.16 C17.04 6.01, 18.73 4.98, 20.48 4.09 C22.22 3.2, 24.05 2.44, 25.91 1.84 C27.77 1.23, 29.7 0.77, 31.63 0.46 C33.57 0.16, 35.54 0, 37.5 0 C39.46 0, 41.43 0.16, 43.37 0.46 C45.3 0.77, 47.23 1.23, 49.09 1.84 C50.95 2.44, 52.78 3.2, 54.52 4.09 C56.27 4.98, 57.96 6.01, 59.54 7.16 C61.12 8.31, 62.63 9.6, 64.02 10.98 C65.4 12.37, 66.69 13.88, 67.84 15.46 C68.99 17.04, 70.02 18.73, 70.91 20.48 C71.8 22.22, 72.56 24.05, 73.16 25.91 C73.77 27.77, 74.23 29.7, 74.54 31.63 C74.84 33.57, 74.92 36.52, 75 37.5 C75.08 38.48, 75.08 36.52, 75 37.5" stroke="none" stroke-width="0" fill="#b2f2bb"></path><path d="M75 37.5 C75 39.46, 74.84 41.43, 74.54 43.37 C74.23 45.3, 73.77 47.23, 73.16 49.09 C72.56 50.95, 71.8 52.78, 70.91 54.52 C70.02 56.27, 68.99 57.96, 67.84 59.54 C66.69 61.12, 65.4 62.63, 64.02 64.02 C62.63 65.4, 61.12 66.69, 59.54 67.84 C57.96 68.99, 56.27 70.02, 54.52 70.91 C52.78 71.8, 50.95 72.56, 49.09 73.16 C47.23 73.77, 45.3 74.23, 43.37 74.54 C41.43 74.84, 39.46 75, 37.5 75 C35.54 75, 33.57 74.84, 31.63 74.54 C29.7 74.23, 27.77 73.77, 25.91 73.16 C24.05 72.56, 22.22 71.8, 20.48 70.91 C18.73 70.02, 17.04 68.99, 15.46 67.84 C13.88 66.69, 12.37 65.4, 10.98 64.02 C9.6 62.63, 8.31 61.12, 7.16 59.54 C6.01 57.96, 4.98 56.27, 4.09 54.52 C3.2 52.78, 2.44 50.95, 1.84 49.09 C1.23 47.23, 0.77 45.3, 0.46 43.37 C0.16 41.43, 0 39.46, 0 37.5 C0 35.54, 0.16 33.57, 0.46 31.63 C0.77 29.7, 1.23 27.77, 1.84 25.91 C2.44 24.05, 3.2 22.22, 4.09 20.48 C4.98 18.73, 6.01 17.04, 7.16 15.46 C8.31 13.88, 9.6 12.37, 10.98 10.98 C12.37 9.6, 13.88 8.31, 15.46 7.16 C17.04 6.01, 18.73 4.98, 20.48 4.09 C22.22 3.2, 24.05 2.44, 25.91 1.84 C27.77 1.23, 29.7 0.77, 31.63 0.46 C33.57 0.16, 35.54 0, 37.5 0 C39.46 0, 41.43 0.16, 43.37 0.46 C45.3 0.77, 47.23 1.23, 49.09 1.84 C50.95 2.44, 52.78 3.2, 54.52 4.09 C56.27 4.98, 57.96 6.01, 59.54 7.16 C61.12 8.31, 62.63 9.6, 64.02 10.98 C65.4 12.37, 66.69 13.88, 67.84 15.46 C68.99 17.04, 70.02 18.73, 70.91 20.48 C71.8 22.22, 72.56 24.05, 73.16 25.91 C73.77 27.77, 74.23 29.7, 74.54 31.63 C74.84 33.57, 74.92 36.52, 75 37.5 C75.08 38.48, 75.08 36.52, 75 37.5" stroke="#1e1e1e" stroke-width="1" fill="none"></path></g><g transform="translate(511.8635005883166 136.9001623721715) rotate(0 5.6199951171875 12.5)"><text x="5.6199951171875" y="0" font-family="HanziPen SC, HanziPen Remote, Virgil, KaiTi, Segoe UI Emoji" font-size="20px" fill="#1e1e1e" text-anchor="middle" style="white-space: pre;" direction="ltr" dominant-baseline="text-before-edge">9</text></g><g stroke-linecap="round" transform="translate(35.78571428571399 106.41666666666697) rotate(0 37.5 37.5)"><path d="M75 37.5 C75 39.46, 74.84 41.43, 74.54 43.37 C74.23 45.3, 73.77 47.23, 73.16 49.09 C72.56 50.95, 71.8 52.78, 70.91 54.52 C70.02 56.27, 68.99 57.96, 67.84 59.54 C66.69 61.12, 65.4 62.63, 64.02 64.02 C62.63 65.4, 61.12 66.69, 59.54 67.84 C57.96 68.99, 56.27 70.02, 54.52 70.91 C52.78 71.8, 50.95 72.56, 49.09 73.16 C47.23 73.77, 45.3 74.23, 43.37 74.54 C41.43 74.84, 39.46 75, 37.5 75 C35.54 75, 33.57 74.84, 31.63 74.54 C29.7 74.23, 27.77 73.77, 25.91 73.16 C24.05 72.56, 22.22 71.8, 20.48 70.91 C18.73 70.02, 17.04 68.99, 15.46 67.84 C13.88 66.69, 12.37 65.4, 10.98 64.02 C9.6 62.63, 8.31 61.12, 7.16 59.54 C6.01 57.96, 4.98 56.27, 4.09 54.52 C3.2 52.78, 2.44 50.95, 1.84 49.09 C1.23 47.23, 0.77 45.3, 0.46 43.37 C0.16 41.43, 0 39.46, 0 37.5 C0 35.54, 0.16 33.57, 0.46 31.63 C0.77 29.7, 1.23 27.77, 1.84 25.91 C2.44 24.05, 3.2 22.22, 4.09 20.48 C4.98 18.73, 6.01 17.04, 7.16 15.46 C8.31 13.88, 9.6 12.37, 10.98 10.98 C12.37 9.6, 13.88 8.31, 15.46 7.16 C17.04 6.01, 18.73 4.98, 20.48 4.09 C22.22 3.2, 24.05 2.44, 25.91 1.84 C27.77 1.23, 29.7 0.77, 31.63 0.46 C33.57 0.16, 35.54 0, 37.5 0 C39.46 0, 41.43 0.16, 43.37 0.46 C45.3 0.77, 47.23 1.23, 49.09 1.84 C50.95 2.44, 52.78 3.2, 54.52 4.09 C56.27 4.98, 57.96 6.01, 59.54 7.16 C61.12 8.31, 62.63 9.6, 64.02 10.98 C65.4 12.37, 66.69 13.88, 67.84 15.46 C68.99 17.04, 70.02 18.73, 70.91 20.48 C71.8 22.22, 72.56 24.05, 73.16 25.91 C73.77 27.77, 74.23 29.7, 74.54 31.63 C74.84 33.57, 74.92 36.52, 75 37.5 C75.08 38.48, 75.08 36.52, 75 37.5" stroke="none" stroke-width="0" fill="#b2f2bb"></path><path d="M75 37.5 C75 39.46, 74.84 41.43, 74.54 43.37 C74.23 45.3, 73.77 47.23, 73.16 49.09 C72.56 50.95, 71.8 52.78, 70.91 54.52 C70.02 56.27, 68.99 57.96, 67.84 59.54 C66.69 61.12, 65.4 62.63, 64.02 64.02 C62.63 65.4, 61.12 66.69, 59.54 67.84 C57.96 68.99, 56.27 70.02, 54.52 70.91 C52.78 71.8, 50.95 72.56, 49.09 73.16 C47.23 73.77, 45.3 74.23, 43.37 74.54 C41.43 74.84, 39.46 75, 37.5 75 C35.54 75, 33.57 74.84, 31.63 74.54 C29.7 74.23, 27.77 73.77, 25.91 73.16 C24.05 72.56, 22.22 71.8, 20.48 70.91 C18.73 70.02, 17.04 68.99, 15.46 67.84 C13.88 66.69, 12.37 65.4, 10.98 64.02 C9.6 62.63, 8.31 61.12, 7.16 59.54 C6.01 57.96, 4.98 56.27, 4.09 54.52 C3.2 52.78, 2.44 50.95, 1.84 49.09 C1.23 47.23, 0.77 45.3, 0.46 43.37 C0.16 41.43, 0 39.46, 0 37.5 C0 35.54, 0.16 33.57, 0.46 31.63 C0.77 29.7, 1.23 27.77, 1.84 25.91 C2.44 24.05, 3.2 22.22, 4.09 20.48 C4.98 18.73, 6.01 17.04, 7.16 15.46 C8.31 13.88, 9.6 12.37, 10.98 10.98 C12.37 9.6, 13.88 8.31, 15.46 7.16 C17.04 6.01, 18.73 4.98, 20.48 4.09 C22.22 3.2, 24.05 2.44, 25.91 1.84 C27.77 1.23, 29.7 0.77, 31.63 0.46 C33.57 0.16, 35.54 0, 37.5 0 C39.46 0, 41.43 0.16, 43.37 0.46 C45.3 0.77, 47.23 1.23, 49.09 1.84 C50.95 2.44, 52.78 3.2, 54.52 4.09 C56.27 4.98, 57.96 6.01, 59.54 7.16 C61.12 8.31, 62.63 9.6, 64.02 10.98 C65.4 12.37, 66.69 13.88, 67.84 15.46 C68.99 17.04, 70.02 18.73, 70.91 20.48 C71.8 22.22, 72.56 24.05, 73.16 25.91 C73.77 27.77, 74.23 29.7, 74.54 31.63 C74.84 33.57, 74.92 36.52, 75 37.5 C75.08 38.48, 75.08 36.52, 75 37.5" stroke="#1e1e1e" stroke-width="1" fill="none"></path></g><g transform="translate(67.64921487403097 131.4001623721715) rotate(0 5.6199951171875 12.5)"><text x="5.6199951171875" y="0" font-family="HanziPen SC, HanziPen Remote, Virgil, KaiTi, Segoe UI Emoji" font-size="20px" fill="#1e1e1e" text-anchor="middle" style="white-space: pre;" direction="ltr" dominant-baseline="text-before-edge">4</text></g><g stroke-linecap="round"><g transform="translate(113.78692010054311 151.41015234056067) rotate(0 30.68527121963953 1.160877454588217)"><path d="M0 0 C10.23 0.39, 51.14 1.93, 61.37 2.32 M0 0 C10.23 0.39, 51.14 1.93, 61.37 2.32" stroke="#1e1e1e" stroke-width="1" fill="none"></path></g><g transform="translate(113.78692010054311 151.41015234056067) rotate(0 30.68527121963953 1.160877454588217)"><path d="M32.81 11.51 C39.87 9.24, 46.93 6.97, 61.37 2.32 M32.81 11.51 C41.14 8.83, 49.47 6.15, 61.37 2.32" stroke="#1e1e1e" stroke-width="1" fill="none"></path></g><g transform="translate(113.78692010054311 151.41015234056067) rotate(0 30.68527121963953 1.160877454588217)"><path d="M33.59 -9 C40.46 -6.2, 47.33 -3.4, 61.37 2.32 M33.59 -9 C41.69 -5.7, 49.79 -2.4, 61.37 2.32" stroke="#1e1e1e" stroke-width="1" fill="none"></path></g></g><mask></mask><g stroke-linecap="round"><g transform="translate(261.02668417055384 157.06426614976544) rotate(0 32.35992827440981 -1.2270524698963072)"><path d="M0 0 C10.79 -0.41, 53.93 -2.05, 64.72 -2.45 M0 0 C10.79 -0.41, 53.93 -2.05, 64.72 -2.45" stroke="#1e1e1e" stroke-width="1" fill="none"></path></g><g transform="translate(261.02668417055384 157.06426614976544) rotate(0 32.35992827440981 -1.2270524698963072)"><path d="M36.94 8.87 C45.58 5.35, 54.21 1.83, 64.72 -2.45 M36.94 8.87 C47.61 4.52, 58.29 0.17, 64.72 -2.45" stroke="#1e1e1e" stroke-width="1" fill="none"></path></g><g transform="translate(261.02668417055384 157.06426614976544) rotate(0 32.35992827440981 -1.2270524698963072)"><path d="M36.16 -11.64 C45.04 -8.78, 53.92 -5.93, 64.72 -2.45 M36.16 -11.64 C47.13 -8.11, 58.11 -4.58, 64.72 -2.45" stroke="#1e1e1e" stroke-width="1" fill="none"></path></g></g><mask></mask><g stroke-linecap="round"><g transform="translate(408.56350209980405 151.6460003777529) rotate(0 30.845470213434282 -0.7054606011524811)"><path d="M0 0 C10.28 -0.24, 51.41 -1.18, 61.69 -1.41 M0 0 C10.28 -0.24, 51.41 -1.18, 61.69 -1.41" stroke="#1e1e1e" stroke-width="1" fill="none"></path></g><g transform="translate(408.56350209980405 151.6460003777529) rotate(0 30.845470213434282 -0.7054606011524811)"><path d="M33.74 9.49 C43.16 5.82, 52.58 2.14, 61.69 -1.41 M33.74 9.49 C42.53 6.06, 51.31 2.64, 61.69 -1.41" stroke="#1e1e1e" stroke-width="1" fill="none"></path></g><g transform="translate(408.56350209980405 151.6460003777529) rotate(0 30.845470213434282 -0.7054606011524811)"><path d="M33.27 -11.02 C42.85 -7.78, 52.43 -4.54, 61.69 -1.41 M33.27 -11.02 C42.2 -8, 51.14 -4.98, 61.69 -1.41" stroke="#1e1e1e" stroke-width="1" fill="none"></path></g></g><mask></mask><g stroke-linecap="round" transform="translate(193.14285714285722 262.2500000000009) rotate(0 37.5 37.5)"><path d="M75 37.5 C75 39.46, 74.84 41.43, 74.54 43.37 C74.23 45.3, 73.77 47.23, 73.16 49.09 C72.56 50.95, 71.8 52.78, 70.91 54.52 C70.02 56.27, 68.99 57.96, 67.84 59.54 C66.69 61.12, 65.4 62.63, 64.02 64.02 C62.63 65.4, 61.12 66.69, 59.54 67.84 C57.96 68.99, 56.27 70.02, 54.52 70.91 C52.78 71.8, 50.95 72.56, 49.09 73.16 C47.23 73.77, 45.3 74.23, 43.37 74.54 C41.43 74.84, 39.46 75, 37.5 75 C35.54 75, 33.57 74.84, 31.63 74.54 C29.7 74.23, 27.77 73.77, 25.91 73.16 C24.05 72.56, 22.22 71.8, 20.48 70.91 C18.73 70.02, 17.04 68.99, 15.46 67.84 C13.88 66.69, 12.37 65.4, 10.98 64.02 C9.6 62.63, 8.31 61.12, 7.16 59.54 C6.01 57.96, 4.98 56.27, 4.09 54.52 C3.2 52.78, 2.44 50.95, 1.84 49.09 C1.23 47.23, 0.77 45.3, 0.46 43.37 C0.16 41.43, 0 39.46, 0 37.5 C0 35.54, 0.16 33.57, 0.46 31.63 C0.77 29.7, 1.23 27.77, 1.84 25.91 C2.44 24.05, 3.2 22.22, 4.09 20.48 C4.98 18.73, 6.01 17.04, 7.16 15.46 C8.31 13.88, 9.6 12.37, 10.98 10.98 C12.37 9.6, 13.88 8.31, 15.46 7.16 C17.04 6.01, 18.73 4.98, 20.48 4.09 C22.22 3.2, 24.05 2.44, 25.91 1.84 C27.77 1.23, 29.7 0.77, 31.63 0.46 C33.57 0.16, 35.54 0, 37.5 0 C39.46 0, 41.43 0.16, 43.37 0.46 C45.3 0.77, 47.23 1.23, 49.09 1.84 C50.95 2.44, 52.78 3.2, 54.52 4.09 C56.27 4.98, 57.96 6.01, 59.54 7.16 C61.12 8.31, 62.63 9.6, 64.02 10.98 C65.4 12.37, 66.69 13.88, 67.84 15.46 C68.99 17.04, 70.02 18.73, 70.91 20.48 C71.8 22.22, 72.56 24.05, 73.16 25.91 C73.77 27.77, 74.23 29.7, 74.54 31.63 C74.84 33.57, 74.92 36.52, 75 37.5 C75.08 38.48, 75.08 36.52, 75 37.5" stroke="none" stroke-width="0" fill="#b2f2bb"></path><path d="M75 37.5 C75 39.46, 74.84 41.43, 74.54 43.37 C74.23 45.3, 73.77 47.23, 73.16 49.09 C72.56 50.95, 71.8 52.78, 70.91 54.52 C70.02 56.27, 68.99 57.96, 67.84 59.54 C66.69 61.12, 65.4 62.63, 64.02 64.02 C62.63 65.4, 61.12 66.69, 59.54 67.84 C57.96 68.99, 56.27 70.02, 54.52 70.91 C52.78 71.8, 50.95 72.56, 49.09 73.16 C47.23 73.77, 45.3 74.23, 43.37 74.54 C41.43 74.84, 39.46 75, 37.5 75 C35.54 75, 33.57 74.84, 31.63 74.54 C29.7 74.23, 27.77 73.77, 25.91 73.16 C24.05 72.56, 22.22 71.8, 20.48 70.91 C18.73 70.02, 17.04 68.99, 15.46 67.84 C13.88 66.69, 12.37 65.4, 10.98 64.02 C9.6 62.63, 8.31 61.12, 7.16 59.54 C6.01 57.96, 4.98 56.27, 4.09 54.52 C3.2 52.78, 2.44 50.95, 1.84 49.09 C1.23 47.23, 0.77 45.3, 0.46 43.37 C0.16 41.43, 0 39.46, 0 37.5 C0 35.54, 0.16 33.57, 0.46 31.63 C0.77 29.7, 1.23 27.77, 1.84 25.91 C2.44 24.05, 3.2 22.22, 4.09 20.48 C4.98 18.73, 6.01 17.04, 7.16 15.46 C8.31 13.88, 9.6 12.37, 10.98 10.98 C12.37 9.6, 13.88 8.31, 15.46 7.16 C17.04 6.01, 18.73 4.98, 20.48 4.09 C22.22 3.2, 24.05 2.44, 25.91 1.84 C27.77 1.23, 29.7 0.77, 31.63 0.46 C33.57 0.16, 35.54 0, 37.5 0 C39.46 0, 41.43 0.16, 43.37 0.46 C45.3 0.77, 47.23 1.23, 49.09 1.84 C50.95 2.44, 52.78 3.2, 54.52 4.09 C56.27 4.98, 57.96 6.01, 59.54 7.16 C61.12 8.31, 62.63 9.6, 64.02 10.98 C65.4 12.37, 66.69 13.88, 67.84 15.46 C68.99 17.04, 70.02 18.73, 70.91 20.48 C71.8 22.22, 72.56 24.05, 73.16 25.91 C73.77 27.77, 74.23 29.7, 74.54 31.63 C74.84 33.57, 74.92 36.52, 75 37.5 C75.08 38.48, 75.08 36.52, 75 37.5" stroke="#1e1e1e" stroke-width="1" fill="none"></path></g><g transform="translate(225.00635773117403 287.23349570550545) rotate(0 5.6199951171875 12.5)"><text x="5.6199951171875" y="0" font-family="HanziPen SC, HanziPen Remote, Virgil, KaiTi, Segoe UI Emoji" font-size="20px" fill="#1e1e1e" text-anchor="middle" style="white-space: pre;" direction="ltr" dominant-baseline="text-before-edge">1</text></g><g stroke-linecap="round" transform="translate(344.60714285714334 264.2500000000009) rotate(0 37.5 37.5)"><path d="M75 37.5 C75 39.46, 74.84 41.43, 74.54 43.37 C74.23 45.3, 73.77 47.23, 73.16 49.09 C72.56 50.95, 71.8 52.78, 70.91 54.52 C70.02 56.27, 68.99 57.96, 67.84 59.54 C66.69 61.12, 65.4 62.63, 64.02 64.02 C62.63 65.4, 61.12 66.69, 59.54 67.84 C57.96 68.99, 56.27 70.02, 54.52 70.91 C52.78 71.8, 50.95 72.56, 49.09 73.16 C47.23 73.77, 45.3 74.23, 43.37 74.54 C41.43 74.84, 39.46 75, 37.5 75 C35.54 75, 33.57 74.84, 31.63 74.54 C29.7 74.23, 27.77 73.77, 25.91 73.16 C24.05 72.56, 22.22 71.8, 20.48 70.91 C18.73 70.02, 17.04 68.99, 15.46 67.84 C13.88 66.69, 12.37 65.4, 10.98 64.02 C9.6 62.63, 8.31 61.12, 7.16 59.54 C6.01 57.96, 4.98 56.27, 4.09 54.52 C3.2 52.78, 2.44 50.95, 1.84 49.09 C1.23 47.23, 0.77 45.3, 0.46 43.37 C0.16 41.43, 0 39.46, 0 37.5 C0 35.54, 0.16 33.57, 0.46 31.63 C0.77 29.7, 1.23 27.77, 1.84 25.91 C2.44 24.05, 3.2 22.22, 4.09 20.48 C4.98 18.73, 6.01 17.04, 7.16 15.46 C8.31 13.88, 9.6 12.37, 10.98 10.98 C12.37 9.6, 13.88 8.31, 15.46 7.16 C17.04 6.01, 18.73 4.98, 20.48 4.09 C22.22 3.2, 24.05 2.44, 25.91 1.84 C27.77 1.23, 29.7 0.77, 31.63 0.46 C33.57 0.16, 35.54 0, 37.5 0 C39.46 0, 41.43 0.16, 43.37 0.46 C45.3 0.77, 47.23 1.23, 49.09 1.84 C50.95 2.44, 52.78 3.2, 54.52 4.09 C56.27 4.98, 57.96 6.01, 59.54 7.16 C61.12 8.31, 62.63 9.6, 64.02 10.98 C65.4 12.37, 66.69 13.88, 67.84 15.46 C68.99 17.04, 70.02 18.73, 70.91 20.48 C71.8 22.22, 72.56 24.05, 73.16 25.91 C73.77 27.77, 74.23 29.7, 74.54 31.63 C74.84 33.57, 74.92 36.52, 75 37.5 C75.08 38.48, 75.08 36.52, 75 37.5" stroke="none" stroke-width="0" fill="#b2f2bb"></path><path d="M75 37.5 C75 39.46, 74.84 41.43, 74.54 43.37 C74.23 45.3, 73.77 47.23, 73.16 49.09 C72.56 50.95, 71.8 52.78, 70.91 54.52 C70.02 56.27, 68.99 57.96, 67.84 59.54 C66.69 61.12, 65.4 62.63, 64.02 64.02 C62.63 65.4, 61.12 66.69, 59.54 67.84 C57.96 68.99, 56.27 70.02, 54.52 70.91 C52.78 71.8, 50.95 72.56, 49.09 73.16 C47.23 73.77, 45.3 74.23, 43.37 74.54 C41.43 74.84, 39.46 75, 37.5 75 C35.54 75, 33.57 74.84, 31.63 74.54 C29.7 74.23, 27.77 73.77, 25.91 73.16 C24.05 72.56, 22.22 71.8, 20.48 70.91 C18.73 70.02, 17.04 68.99, 15.46 67.84 C13.88 66.69, 12.37 65.4, 10.98 64.02 C9.6 62.63, 8.31 61.12, 7.16 59.54 C6.01 57.96, 4.98 56.27, 4.09 54.52 C3.2 52.78, 2.44 50.95, 1.84 49.09 C1.23 47.23, 0.77 45.3, 0.46 43.37 C0.16 41.43, 0 39.46, 0 37.5 C0 35.54, 0.16 33.57, 0.46 31.63 C0.77 29.7, 1.23 27.77, 1.84 25.91 C2.44 24.05, 3.2 22.22, 4.09 20.48 C4.98 18.73, 6.01 17.04, 7.16 15.46 C8.31 13.88, 9.6 12.37, 10.98 10.98 C12.37 9.6, 13.88 8.31, 15.46 7.16 C17.04 6.01, 18.73 4.98, 20.48 4.09 C22.22 3.2, 24.05 2.44, 25.91 1.84 C27.77 1.23, 29.7 0.77, 31.63 0.46 C33.57 0.16, 35.54 0, 37.5 0 C39.46 0, 41.43 0.16, 43.37 0.46 C45.3 0.77, 47.23 1.23, 49.09 1.84 C50.95 2.44, 52.78 3.2, 54.52 4.09 C56.27 4.98, 57.96 6.01, 59.54 7.16 C61.12 8.31, 62.63 9.6, 64.02 10.98 C65.4 12.37, 66.69 13.88, 67.84 15.46 C68.99 17.04, 70.02 18.73, 70.91 20.48 C71.8 22.22, 72.56 24.05, 73.16 25.91 C73.77 27.77, 74.23 29.7, 74.54 31.63 C74.84 33.57, 74.92 36.52, 75 37.5 C75.08 38.48, 75.08 36.52, 75 37.5" stroke="#1e1e1e" stroke-width="1" fill="none"></path></g><g transform="translate(376.4706434454604 289.23349570550545) rotate(0 5.6199951171875 12.5)"><text x="5.6199951171875" y="0" font-family="HanziPen SC, HanziPen Remote, Virgil, KaiTi, Segoe UI Emoji" font-size="20px" fill="#1e1e1e" text-anchor="middle" style="white-space: pre;" direction="ltr" dominant-baseline="text-before-edge">9</text></g><g stroke-linecap="round" transform="translate(41.22619047619048 254.58333333333394) rotate(0 37.5 37.5)"><path d="M75 37.5 C75 39.46, 74.84 41.43, 74.54 43.37 C74.23 45.3, 73.77 47.23, 73.16 49.09 C72.56 50.95, 71.8 52.78, 70.91 54.52 C70.02 56.27, 68.99 57.96, 67.84 59.54 C66.69 61.12, 65.4 62.63, 64.02 64.02 C62.63 65.4, 61.12 66.69, 59.54 67.84 C57.96 68.99, 56.27 70.02, 54.52 70.91 C52.78 71.8, 50.95 72.56, 49.09 73.16 C47.23 73.77, 45.3 74.23, 43.37 74.54 C41.43 74.84, 39.46 75, 37.5 75 C35.54 75, 33.57 74.84, 31.63 74.54 C29.7 74.23, 27.77 73.77, 25.91 73.16 C24.05 72.56, 22.22 71.8, 20.48 70.91 C18.73 70.02, 17.04 68.99, 15.46 67.84 C13.88 66.69, 12.37 65.4, 10.98 64.02 C9.6 62.63, 8.31 61.12, 7.16 59.54 C6.01 57.96, 4.98 56.27, 4.09 54.52 C3.2 52.78, 2.44 50.95, 1.84 49.09 C1.23 47.23, 0.77 45.3, 0.46 43.37 C0.16 41.43, 0 39.46, 0 37.5 C0 35.54, 0.16 33.57, 0.46 31.63 C0.77 29.7, 1.23 27.77, 1.84 25.91 C2.44 24.05, 3.2 22.22, 4.09 20.48 C4.98 18.73, 6.01 17.04, 7.16 15.46 C8.31 13.88, 9.6 12.37, 10.98 10.98 C12.37 9.6, 13.88 8.31, 15.46 7.16 C17.04 6.01, 18.73 4.98, 20.48 4.09 C22.22 3.2, 24.05 2.44, 25.91 1.84 C27.77 1.23, 29.7 0.77, 31.63 0.46 C33.57 0.16, 35.54 0, 37.5 0 C39.46 0, 41.43 0.16, 43.37 0.46 C45.3 0.77, 47.23 1.23, 49.09 1.84 C50.95 2.44, 52.78 3.2, 54.52 4.09 C56.27 4.98, 57.96 6.01, 59.54 7.16 C61.12 8.31, 62.63 9.6, 64.02 10.98 C65.4 12.37, 66.69 13.88, 67.84 15.46 C68.99 17.04, 70.02 18.73, 70.91 20.48 C71.8 22.22, 72.56 24.05, 73.16 25.91 C73.77 27.77, 74.23 29.7, 74.54 31.63 C74.84 33.57, 74.92 36.52, 75 37.5 C75.08 38.48, 75.08 36.52, 75 37.5" stroke="none" stroke-width="0" fill="#b2f2bb"></path><path d="M75 37.5 C75 39.46, 74.84 41.43, 74.54 43.37 C74.23 45.3, 73.77 47.23, 73.16 49.09 C72.56 50.95, 71.8 52.78, 70.91 54.52 C70.02 56.27, 68.99 57.96, 67.84 59.54 C66.69 61.12, 65.4 62.63, 64.02 64.02 C62.63 65.4, 61.12 66.69, 59.54 67.84 C57.96 68.99, 56.27 70.02, 54.52 70.91 C52.78 71.8, 50.95 72.56, 49.09 73.16 C47.23 73.77, 45.3 74.23, 43.37 74.54 C41.43 74.84, 39.46 75, 37.5 75 C35.54 75, 33.57 74.84, 31.63 74.54 C29.7 74.23, 27.77 73.77, 25.91 73.16 C24.05 72.56, 22.22 71.8, 20.48 70.91 C18.73 70.02, 17.04 68.99, 15.46 67.84 C13.88 66.69, 12.37 65.4, 10.98 64.02 C9.6 62.63, 8.31 61.12, 7.16 59.54 C6.01 57.96, 4.98 56.27, 4.09 54.52 C3.2 52.78, 2.44 50.95, 1.84 49.09 C1.23 47.23, 0.77 45.3, 0.46 43.37 C0.16 41.43, 0 39.46, 0 37.5 C0 35.54, 0.16 33.57, 0.46 31.63 C0.77 29.7, 1.23 27.77, 1.84 25.91 C2.44 24.05, 3.2 22.22, 4.09 20.48 C4.98 18.73, 6.01 17.04, 7.16 15.46 C8.31 13.88, 9.6 12.37, 10.98 10.98 C12.37 9.6, 13.88 8.31, 15.46 7.16 C17.04 6.01, 18.73 4.98, 20.48 4.09 C22.22 3.2, 24.05 2.44, 25.91 1.84 C27.77 1.23, 29.7 0.77, 31.63 0.46 C33.57 0.16, 35.54 0, 37.5 0 C39.46 0, 41.43 0.16, 43.37 0.46 C45.3 0.77, 47.23 1.23, 49.09 1.84 C50.95 2.44, 52.78 3.2, 54.52 4.09 C56.27 4.98, 57.96 6.01, 59.54 7.16 C61.12 8.31, 62.63 9.6, 64.02 10.98 C65.4 12.37, 66.69 13.88, 67.84 15.46 C68.99 17.04, 70.02 18.73, 70.91 20.48 C71.8 22.22, 72.56 24.05, 73.16 25.91 C73.77 27.77, 74.23 29.7, 74.54 31.63 C74.84 33.57, 74.92 36.52, 75 37.5 C75.08 38.48, 75.08 36.52, 75 37.5" stroke="#1e1e1e" stroke-width="1" fill="none"></path></g><g transform="translate(73.0896910645074 279.5668290388385) rotate(0 5.6199951171875 12.5)"><text x="5.6199951171875" y="0" font-family="HanziPen SC, HanziPen Remote, Virgil, KaiTi, Segoe UI Emoji" font-size="20px" fill="#1e1e1e" text-anchor="middle" style="white-space: pre;" direction="ltr" dominant-baseline="text-before-edge">4</text></g><g stroke-linecap="round"><g transform="translate(119.22739629101955 299.57681900722673) rotate(0 30.68527121963953 1.160877454588217)"><path d="M0 0 C10.23 0.39, 51.14 1.93, 61.37 2.32 M0 0 C10.23 0.39, 51.14 1.93, 61.37 2.32" stroke="#1e1e1e" stroke-width="1" fill="none"></path></g><g transform="translate(119.22739629101955 299.57681900722673) rotate(0 30.68527121963953 1.160877454588217)"><path d="M32.81 11.51 C44 7.91, 55.19 4.31, 61.37 2.32 M32.81 11.51 C40.94 8.89, 49.07 6.28, 61.37 2.32" stroke="#1e1e1e" stroke-width="1" fill="none"></path></g><g transform="translate(119.22739629101955 299.57681900722673) rotate(0 30.68527121963953 1.160877454588217)"><path d="M33.59 -9 C44.47 -4.56, 55.36 -0.13, 61.37 2.32 M33.59 -9 C41.49 -5.78, 49.4 -2.55, 61.37 2.32" stroke="#1e1e1e" stroke-width="1" fill="none"></path></g></g><mask></mask><g stroke-linecap="round"><g transform="translate(273.1706449569476 303.97933371108684) rotate(0 30.845470213434282 -0.7054606011524811)"><path d="M0 0 C10.28 -0.24, 51.41 -1.18, 61.69 -1.41 M0 0 C10.28 -0.24, 51.41 -1.18, 61.69 -1.41" stroke="#1e1e1e" stroke-width="1" fill="none"></path></g><g transform="translate(273.1706449569476 303.97933371108684) rotate(0 30.845470213434282 -0.7054606011524811)"><path d="M33.74 9.49 C40.22 6.97, 46.69 4.44, 61.69 -1.41 M33.74 9.49 C43.73 5.6, 53.71 1.7, 61.69 -1.41" stroke="#1e1e1e" stroke-width="1" fill="none"></path></g><g transform="translate(273.1706449569476 303.97933371108684) rotate(0 30.845470213434282 -0.7054606011524811)"><path d="M33.27 -11.02 C39.85 -8.8, 46.44 -6.57, 61.69 -1.41 M33.27 -11.02 C43.43 -7.59, 53.58 -4.16, 61.69 -1.41" stroke="#1e1e1e" stroke-width="1" fill="none"></path></g></g><mask></mask></svg>